<?xml version="1.0" encoding="UTF-8" standalone="no"?>
<!-- Created with Inkscape (http://www.inkscape.org/) -->

<svg
   xmlns:dc="http://purl.org/dc/elements/1.1/"
   xmlns:cc="http://creativecommons.org/ns#"
   xmlns:rdf="http://www.w3.org/1999/02/22-rdf-syntax-ns#"
   xmlns:svg="http://www.w3.org/2000/svg"
   xmlns="http://www.w3.org/2000/svg"
   xmlns:xlink="http://www.w3.org/1999/xlink"
   xmlns:sodipodi="http://sodipodi.sourceforge.net/DTD/sodipodi-0.dtd"
   xmlns:inkscape="http://www.inkscape.org/namespaces/inkscape"
   width="491.95212"
   height="117.7"
   id="svg2"
   version="1.1"
   inkscape:version="0.48.4 r9939"
   sodipodi:docname="New document 1">
  <title
     id="title3670">Outercurve Logo</title>
  <defs
     id="defs4">
    <clipPath
       id="clipPath3131"
       clipPathUnits="userSpaceOnUse">
      <path
         id="path3133"
         d="M 0,612 792,612 792,0 0,0 0,612 z"
         inkscape:connector-curvature="0" />
    </clipPath>
    <linearGradient
       id="linearGradient3119"
       spreadMethod="pad"
       gradientTransform="matrix(0,45.942062,45.942062,0,261.11523,261.74707)"
       gradientUnits="userSpaceOnUse"
       y2="0"
       x2="1"
       y1="0"
       x1="0">
      <stop
         id="stop3121"
         offset="0"
         style="stop-opacity:1;stop-color:#231f20" />
      <stop
         id="stop3123"
         offset="1"
         style="stop-opacity:1;stop-color:#464344" />
    </linearGradient>
    <linearGradient
       id="linearGradient3099"
       spreadMethod="pad"
       gradientTransform="matrix(0.1066589,43.933166,43.933166,-0.1066589,263.22949,283.60547)"
       gradientUnits="userSpaceOnUse"
       y2="0"
       x2="1"
       y1="0"
       x1="0">
      <stop
         id="stop3101"
         offset="0"
         style="stop-opacity:1;stop-color:#231f20" />
      <stop
         id="stop3103"
         offset="1"
         style="stop-opacity:1;stop-color:#464344" />
    </linearGradient>
    <linearGradient
       id="linearGradient3079"
       spreadMethod="pad"
       gradientTransform="matrix(-56.271713,-27.228134,-27.228134,56.271713,284.8291,337.56152)"
       gradientUnits="userSpaceOnUse"
       y2="0"
       x2="1"
       y1="0"
       x1="0">
      <stop
         id="stop3081"
         offset="0"
         style="stop-opacity:1;stop-color:#656263" />
      <stop
         id="stop3083"
         offset="1"
         style="stop-opacity:1;stop-color:#cac9c9" />
    </linearGradient>
    <linearGradient
       id="linearGradient3059"
       spreadMethod="pad"
       gradientTransform="matrix(54.456573,-39.481003,-39.481003,-54.456573,205.71387,321.78711)"
       gradientUnits="userSpaceOnUse"
       y2="0"
       x2="1"
       y1="0"
       x1="0">
      <stop
         id="stop3061"
         offset="0"
         style="stop-opacity:1;stop-color:#30235b" />
      <stop
         id="stop3063"
         offset="1"
         style="stop-opacity:1;stop-color:#894cab" />
    </linearGradient>
    <linearGradient
       id="linearGradient3039"
       spreadMethod="pad"
       gradientTransform="matrix(37.962555,-21.753769,-21.753769,-37.96254,223.40918,306.27734)"
       gradientUnits="userSpaceOnUse"
       y2="0"
       x2="1"
       y1="0"
       x1="0">
      <stop
         id="stop3041"
         offset="0"
         style="stop-opacity:1;stop-color:#30235b" />
      <stop
         id="stop3043"
         offset="1"
         style="stop-opacity:1;stop-color:#894cab" />
    </linearGradient>
    <linearGradient
       id="linearGradient3019"
       spreadMethod="pad"
       gradientTransform="matrix(-40.095139,-23.139984,-23.139984,40.095139,263.15137,329.83398)"
       gradientUnits="userSpaceOnUse"
       y2="0"
       x2="1"
       y1="0"
       x1="0">
      <stop
         id="stop3021"
         offset="0"
         style="stop-opacity:1;stop-color:#656263" />
      <stop
         id="stop3023"
         offset="1"
         style="stop-opacity:1;stop-color:#cac9c9" />
    </linearGradient>
    <clipPath
       id="clipPath2999"
       clipPathUnits="userSpaceOnUse">
      <path
         id="path3001"
         d="M 0,612 792,612 792,0 0,0 0,612 z"
         inkscape:connector-curvature="0" />
    </clipPath>
    <linearGradient
       inkscape:collect="always"
       xlink:href="#linearGradient3019"
       id="linearGradient3658"
       gradientUnits="userSpaceOnUse"
       gradientTransform="matrix(-40.095139,-23.139984,-23.139984,40.095139,263.15137,329.83398)"
       spreadMethod="pad"
       x1="0"
       y1="0"
       x2="1"
       y2="0" />
    <linearGradient
       inkscape:collect="always"
       xlink:href="#linearGradient3039"
       id="linearGradient3660"
       gradientUnits="userSpaceOnUse"
       gradientTransform="matrix(37.962555,-21.753769,-21.753769,-37.96254,223.40918,306.27734)"
       spreadMethod="pad"
       x1="0"
       y1="0"
       x2="1"
       y2="0" />
    <linearGradient
       inkscape:collect="always"
       xlink:href="#linearGradient3059"
       id="linearGradient3662"
       gradientUnits="userSpaceOnUse"
       gradientTransform="matrix(54.456573,-39.481003,-39.481003,-54.456573,205.71387,321.78711)"
       spreadMethod="pad"
       x1="0"
       y1="0"
       x2="1"
       y2="0" />
    <linearGradient
       inkscape:collect="always"
       xlink:href="#linearGradient3079"
       id="linearGradient3664"
       gradientUnits="userSpaceOnUse"
       gradientTransform="matrix(-56.271713,-27.228134,-27.228134,56.271713,284.8291,337.56152)"
       spreadMethod="pad"
       x1="0"
       y1="0"
       x2="1"
       y2="0" />
    <linearGradient
       inkscape:collect="always"
       xlink:href="#linearGradient3099"
       id="linearGradient3666"
       gradientUnits="userSpaceOnUse"
       gradientTransform="matrix(0.1066589,43.933166,43.933166,-0.1066589,263.22949,283.60547)"
       spreadMethod="pad"
       x1="0"
       y1="0"
       x2="1"
       y2="0" />
    <linearGradient
       inkscape:collect="always"
       xlink:href="#linearGradient3119"
       id="linearGradient3668"
       gradientUnits="userSpaceOnUse"
       gradientTransform="matrix(0,45.942062,45.942062,0,261.11523,261.74707)"
       spreadMethod="pad"
       x1="0"
       y1="0"
       x2="1"
       y2="0" />
  </defs>
  <sodipodi:namedview
     id="base"
     pagecolor="#ffffff"
     bordercolor="#666666"
     borderopacity="1.0"
     inkscape:pageopacity="0.0"
     inkscape:pageshadow="2"
     inkscape:zoom="0.82"
     inkscape:cx="207.37106"
     inkscape:cy="-145.22706"
     inkscape:document-units="px"
     inkscape:current-layer="layer1"
     showgrid="false"
     fit-margin-top="0"
     fit-margin-left="0"
     fit-margin-right="0"
     fit-margin-bottom="0"
     inkscape:window-width="1920"
     inkscape:window-height="1017"
     inkscape:window-x="-8"
     inkscape:window-y="-8"
     inkscape:window-maximized="1" />
  <metadata
     id="metadata7">
    <rdf:RDF>
      <cc:Work
         rdf:about="">
        <dc:format>image/svg+xml</dc:format>
        <dc:type
           rdf:resource="http://purl.org/dc/dcmitype/StillImage" />
        <dc:title>Outercurve Logo</dc:title>
      </cc:Work>
    </rdf:RDF>
  </metadata>
  <g
     inkscape:label="Layer 1"
     inkscape:groupmode="layer"
     id="layer1"
     transform="translate(-167.62894,-269.43512)">
    <g
       id="g2995"
       transform="matrix(1.25,0,0,-1.25,-81.439683,711.0115)">
      <g
         id="g2997"
         clip-path="url(#clipPath2999)">
        <g
           id="g3003"
           transform="translate(277.4839,305.3501)">
          <path
             inkscape:connector-curvature="0"
             d="m 0,0 7.042,12.198 c 3.179,5.508 4.023,11.923 2.378,18.065 -1.645,6.141 -5.585,11.276 -11.091,14.454 -3.618,2.09 -7.727,3.194 -11.883,3.194 -8.488,0 -16.396,-4.562 -20.636,-11.906 l -6.084,-10.537 -14.149,0 c -13.126,0 -23.806,-10.679 -23.806,-23.806 0,-13.125 10.68,-23.807 23.806,-23.807 l 12.175,0 7.099,-12.2 c 4.238,-7.341 12.147,-11.904 20.637,-11.904 4.155,0 8.263,1.104 11.881,3.193 5.506,3.179 9.446,8.313 11.091,14.457 1.647,6.141 0.802,12.557 -2.378,18.063 L 0,0 z"
             style="fill:#ffffff;fill-opacity:1;fill-rule:nonzero;stroke:none"
             id="path3005" />
        </g>
      </g>
    </g>
    <g
       id="g3007"
       transform="matrix(1.25,0,0,-1.25,-81.439683,711.0115)">
      <g
         id="g3009">
        <g
           id="g3015">
          <g
             id="g3017">
            <path
               inkscape:connector-curvature="0"
               d="m 237.839,329.727 -12.795,-22.161 24.652,0 13.734,22.161 -25.591,0 z"
               style="fill:url(#linearGradient3658);stroke:none"
               id="path3025" />
          </g>
        </g>
      </g>
    </g>
    <g
       id="g3027"
       transform="matrix(1.25,0,0,-1.25,-81.439683,711.0115)">
      <g
         id="g3029">
        <g
           id="g3035">
          <g
             id="g3037">
            <path
               inkscape:connector-curvature="0"
               d="m 223.061,306.459 12.795,-22.163 25.589,0 -12.443,22.163 -25.941,0 z"
               style="fill:url(#linearGradient3660);stroke:none"
               id="path3045" />
          </g>
        </g>
      </g>
    </g>
    <g
       id="g3047"
       transform="matrix(1.25,0,0,-1.25,-81.439683,711.0115)">
      <g
         id="g3049">
        <g
           id="g3055">
          <g
             id="g3057">
            <path
               inkscape:connector-curvature="0"
               d="m 223.061,329.727 c -12.545,0 -22.716,-10.169 -22.716,-22.715 l 0,0 c 0,-12.545 10.171,-22.716 22.716,-22.716 l 0,0 12.795,0 -12.795,22.163 13.435,23.268 -13.435,0 z"
               style="fill:url(#linearGradient3662);stroke:none"
               id="path3065" />
          </g>
        </g>
      </g>
    </g>
    <g
       id="g3067"
       transform="matrix(1.25,0,0,-1.25,-81.439683,711.0115)">
      <g
         id="g3069">
        <g
           id="g3075">
          <g
             id="g3077">
            <path
               inkscape:connector-curvature="0"
               d="m 244.238,340.808 -6.399,-11.081 25.591,0 13.434,-23.268 6.718,11.634 c 6.273,10.864 2.55,24.757 -8.314,31.03 l 0,0 c -3.578,2.066 -7.483,3.047 -11.337,3.047 l 0,0 c -7.85,0 -15.486,-4.074 -19.693,-11.362"
               style="fill:url(#linearGradient3664);stroke:none"
               id="path3085" />
          </g>
        </g>
      </g>
    </g>
    <g
       id="g3087"
       transform="matrix(1.25,0,0,-1.25,-81.439683,711.0115)">
      <g
         id="g3089">
        <g
           id="g3095">
          <g
             id="g3097">
            <path
               inkscape:connector-curvature="0"
               d="m 250.34,306.459 13.09,-23.27 12.794,22.161 -12.794,22.162 -13.09,-21.053 z"
               style="fill:url(#linearGradient3666);stroke:none"
               id="path3105" />
          </g>
        </g>
      </g>
    </g>
    <g
       id="g3107"
       transform="matrix(1.25,0,0,-1.25,-81.439683,711.0115)">
      <g
         id="g3109">
        <g
           id="g3115">
          <g
             id="g3117">
            <path
               inkscape:connector-curvature="0"
               d="m 263.43,283.189 -26.869,0 6.716,-11.636 c 6.273,-10.864 20.166,-14.585 31.03,-8.314 l 0,0 c 10.866,6.272 14.589,20.166 8.315,31.03 l 0,0 -6.398,11.081 -12.794,-22.161 z"
               style="fill:url(#linearGradient3668);stroke:none"
               id="path3125" />
          </g>
        </g>
      </g>
    </g>
    <g
       id="g3127"
       transform="matrix(1.25,0,0,-1.25,-81.439683,711.0115)">
      <g
         id="g3129"
         clip-path="url(#clipPath3131)">
        <g
           id="g3135"
           transform="translate(429.5342,280.8672)">
          <path
             inkscape:connector-curvature="0"
             d="M 0,0 7.036,0 7.034,-0.687 0.743,-0.688 0.742,-4.781 l 5.652,0 0,-0.685 -5.651,0.001 0.001,-4.522 -0.743,0 L 0,0 z"
             style="fill:#5a5758;fill-opacity:1;fill-rule:nonzero;stroke:none"
             id="path3137" />
        </g>
        <g
           id="g3139"
           transform="translate(454.5723,275.8457)">
          <path
             inkscape:connector-curvature="0"
             d="M 0,0 0,0.026 C 0.002,2.494 -1.795,4.52 -4.264,4.52 -6.732,4.521 -8.5,2.523 -8.5,0.056 l 0,-0.03 C -8.503,-2.441 -6.704,-4.469 -4.234,-4.471 -1.767,-4.469 0.002,-2.47 0,0 m -9.271,-0.002 -10e-4,0.028 c 0.003,2.726 2.012,5.165 5.038,5.163 3.023,0.002 5.005,-2.41 5.005,-5.133 0.014,-0.015 0.014,-0.015 0.003,-0.03 0,-2.722 -2.012,-5.163 -5.038,-5.164 -3.024,0 -5.007,2.409 -5.007,5.136"
             style="fill:#5a5758;fill-opacity:1;fill-rule:nonzero;stroke:none"
             id="path3141" />
        </g>
        <g
           id="g3143"
           transform="translate(464.8467,275.0313)">
          <path
             inkscape:connector-curvature="0"
             d="m 0,0 0,5.836 0.741,10e-4 0,-5.766 c 0.001,-2.356 1.271,-3.711 3.382,-3.711 2.027,0 3.324,1.226 3.325,3.639 l 0,5.837 0.742,0 -0.002,-5.75 C 8.188,-2.783 6.519,-4.309 4.094,-4.309 1.698,-4.309 0,-2.797 0,0"
             style="fill:#5a5758;fill-opacity:1;fill-rule:nonzero;stroke:none"
             id="path3145" />
        </g>
        <g
           id="g3147"
           transform="translate(482.9805,280.8682)">
          <path
             inkscape:connector-curvature="0"
             d="m 0,0 0.701,-0.003 6.889,-8.686 -0.002,8.688 0.717,0 0,-9.99 -0.557,0 L 0.715,-1.115 0.714,-9.991 0.002,-9.992 0,0 z"
             style="fill:#5a5758;fill-opacity:1;fill-rule:nonzero;stroke:none"
             id="path3149" />
        </g>
        <g
           id="g3151"
           transform="translate(504.708,271.5625)">
          <path
             inkscape:connector-curvature="0"
             d="m 0,0 c 2.786,0.003 4.54,1.897 4.542,4.281 l 0,0.029 C 4.54,6.679 2.785,8.618 0,8.617 l -2.579,10e-4 0,-8.615 L 0,0 z m -3.322,9.305 3.325,0 C 3.139,9.306 5.31,7.149 5.31,4.34 l 0,-0.03 C 5.31,1.499 3.139,-0.686 0,-0.686 l -3.321,0 -10e-4,9.991 z"
             style="fill:#5a5758;fill-opacity:1;fill-rule:nonzero;stroke:none"
             id="path3153" />
        </g>
        <g
           id="g3155"
           transform="translate(525.7969,274.3467)">
          <path
             inkscape:connector-curvature="0"
             d="M 0,0 -2.623,5.777 -5.264,0 0,0 z m -2.965,6.591 0.711,0 4.653,-10.061 -0.816,0.003 -1.269,2.796 -5.894,0 -1.268,-2.799 -0.769,0 4.652,10.061 z"
             style="fill:#5a5758;fill-opacity:1;fill-rule:nonzero;stroke:none"
             id="path3157" />
        </g>
        <g
           id="g3159"
           transform="translate(538.9229,280.1807)">
          <path
             inkscape:connector-curvature="0"
             d="m 0,0 -3.482,0 -10e-4,0.687 7.707,10e-4 0,-0.687 L 0.743,0 0.741,-9.301 l -0.743,0 L 0,0 z"
             style="fill:#5a5758;fill-opacity:1;fill-rule:nonzero;stroke:none"
             id="path3161" />
        </g>
        <g
           id="g3163"
           transform="translate(552.6328,280.8672)">
          <path
             inkscape:connector-curvature="0"
             d="m 0,0 0.741,0.001 0,-9.988 L 0,-9.987 0,0 z"
             style="fill:#5a5758;fill-opacity:1;fill-rule:nonzero;stroke:none"
             id="path3165" />
        </g>
        <g
           id="g3167"
           transform="translate(572.4063,275.8467)">
          <path
             inkscape:connector-curvature="0"
             d="m 0,0 0,0.025 c 0.001,2.469 -1.798,4.496 -4.264,4.494 -2.468,0 -4.238,-1.997 -4.238,-4.464 l 0,-0.027 c 0,-2.47 1.797,-4.497 4.265,-4.497 2.469,0 4.238,2 4.237,4.469 m -9.273,-0.003 0,0.028 c 10e-4,2.727 2.012,5.165 5.039,5.166 3.021,0 5.006,-2.41 5.005,-5.135 0.016,-0.015 0.016,-0.015 0,-0.031 0.001,-2.725 -2.011,-5.163 -5.037,-5.164 -3.024,0.001 -5.006,2.412 -5.007,5.136"
             style="fill:#5a5758;fill-opacity:1;fill-rule:nonzero;stroke:none"
             id="path3169" />
        </g>
        <g
           id="g3171"
           transform="translate(582.8369,280.8672)">
          <path
             inkscape:connector-curvature="0"
             d="m 0,0 0.699,0.001 6.892,-8.689 0,8.688 0.714,0.001 0,-9.988 -0.558,0 -7.033,8.875 0,-8.875 -0.715,0 L 0,0 z"
             style="fill:#5a5758;fill-opacity:1;fill-rule:nonzero;stroke:none"
             id="path3173" />
        </g>
        <g
           id="g3175"
           transform="translate(461.9863,311.1514)">
          <path
             inkscape:connector-curvature="0"
             d="m 0,0 c -0.79,-2.816 -0.732,-6.026 -0.451,-8.901 0.338,-3.041 1.465,-6.027 4.395,-7.378 4.506,-2.085 10.083,-0.959 14.477,0.73 l 1.353,-3.154 c -5.239,-2.141 -11.775,-3.322 -17.126,-0.845 -2.422,1.072 -4.394,2.986 -5.464,5.407 -1.185,2.649 -1.241,5.633 -1.241,8.452 0,2.929 0.056,6.027 1.352,8.731 1.185,2.366 3.213,4.225 5.635,5.239 5.351,2.255 11.661,1.128 16.844,-0.956 L 18.421,4.113 C 12.506,6.366 2.253,8 0,0"
             style="fill:#593480;fill-opacity:1;fill-rule:nonzero;stroke:none"
             id="path3177" />
        </g>
        <g
           id="g3179"
           transform="translate(488.2422,293.3506)">
          <path
             inkscape:connector-curvature="0"
             d="m 0,0 c -2.365,2.309 -3.155,5.632 -3.155,8.843 l 0,17.748 3.491,0 0,-17.748 C 0.336,6.702 0.788,4.337 2.31,2.704 4.112,0.788 6.931,0.337 9.463,0.337 c 2.424,0 5.072,0.394 6.932,2.084 1.745,1.634 2.197,4.113 2.197,6.422 l 0,17.748 3.547,0 0,-17.748 c 0,-3.605 -1.126,-7.322 -4.113,-9.576 C 15.549,-2.648 12.507,-3.099 9.463,-3.211 6.084,-3.211 2.479,-2.422 0,0"
             style="fill:#593480;fill-opacity:1;fill-rule:nonzero;stroke:none"
             id="path3181" />
        </g>
        <g
           id="g3183"
           transform="translate(547.2266,290.8584)">
          <path
             inkscape:connector-curvature="0"
             d="m 0,0 -13.125,29.083 3.889,0 11.266,-25.027 11.324,25.027 3.885,0 L 4.115,0 0,0 z"
             style="fill:#593480;fill-opacity:1;fill-rule:nonzero;stroke:none"
             id="path3185" />
        </g>
        <g
           id="g3187"
           transform="translate(569.0996,307.0391)">
          <path
             inkscape:connector-curvature="0"
             d="M 0,0 20.11,0 C 19.773,2.762 18.814,5.633 16.846,7.661 15.041,9.465 12.563,10.142 10.025,10.197 7.436,10.197 4.901,9.408 3.098,7.493 1.184,5.464 0.338,2.705 0,0 m 6.647,-16.279 c -5.634,1.237 -9.464,5.857 -10.141,11.548 -0.564,5.013 0.394,10.703 3.888,14.534 4,4.337 11.324,5.126 16.395,2.253 4.955,-2.703 6.928,-8.732 6.928,-14.14 l 0,-1.464 -23.83,0 c 0.393,-4.34 2.817,-8.113 7.211,-9.184 4.112,-1.071 9.352,-0.394 12.113,3.155 l 2.816,-2.141 c -3.548,-4.619 -9.972,-5.745 -15.38,-4.561"
             style="fill:#593480;fill-opacity:1;fill-rule:nonzero;stroke:none"
             id="path3189" />
        </g>
        <g
           id="g3191"
           transform="translate(515.0225,307.5938)">
          <path
             inkscape:connector-curvature="0"
             d="m 0,0 c 0,0 0.034,2.757 1.083,5.097 0.93,2.07 1.968,3.109 1.968,3.109 2.279,2.851 7.03,5.124 12.848,4.871 L 15.89,9.195 15.603,9.196 C 8.804,9.223 3.624,7.462 3.588,-2.103 L 3.527,-16.715 -0.069,-16.707 0,0 z"
             style="fill:#593480;fill-opacity:1;fill-rule:nonzero;stroke:none"
             id="path3193" />
        </g>
        <g
           id="g3195"
           transform="translate(331.5098,305.3501)">
          <path
             inkscape:connector-curvature="0"
             d="m 0,0 c 0,-5 -3.583,-9.083 -8.75,-9.083 -5.167,0 -8.832,4.167 -8.832,9.166 l 0,0.083 c 0,5 3.584,9.084 8.749,9.084 C -3.667,9.25 0,5.082 0,0.083 L 0,0 z m -8.75,15.164 c -8.998,0 -15.54,-6.79 -15.54,-15.081 l 0,-0.083 c 0,-8.29 6.457,-14.998 15.457,-14.998 8.998,0 15.541,6.791 15.541,15.081 l 0,0.083 c 0,8.291 -6.459,14.998 -15.458,14.998"
             style="fill:#231f20;fill-opacity:1;fill-rule:nonzero;stroke:none"
             id="path3197" />
        </g>
        <g
           id="g3199"
           transform="translate(361.6616,303.3076)">
          <path
             inkscape:connector-curvature="0"
             d="m 0,0 c 0,-4.624 -2.375,-6.999 -6.291,-6.999 -3.917,0 -6.292,2.46 -6.292,7.209 l 0,16.496 -6.416,0 0,-16.664 c 0,-8.58 4.792,-12.956 12.624,-12.956 7.833,0 12.791,4.333 12.791,13.166 l 0,16.454 L 0,16.706 0,0 z"
             style="fill:#231f20;fill-opacity:1;fill-rule:nonzero;stroke:none"
             id="path3201" />
        </g>
        <g
           id="g3203"
           transform="translate(372.5381,314.0977)">
          <path
             inkscape:connector-curvature="0"
             d="m 0,0 8.874,0 0,-23.245 6.415,0 0,23.245 8.874,0 0,5.916 L 0,5.916 0,0 z"
             style="fill:#231f20;fill-opacity:1;fill-rule:nonzero;stroke:none"
             id="path3205" />
        </g>
        <g
           id="g3207"
           transform="translate(407.9941,302.6836)">
          <path
             inkscape:connector-curvature="0"
             d="m 0,0 13.748,0 0,5.708 -13.748,0 0,5.916 15.621,0 0,5.706 -21.996,0 0,-29.161 22.205,0 0,5.705 L 0,-6.126 0,0 z"
             style="fill:#231f20;fill-opacity:1;fill-rule:nonzero;stroke:none"
             id="path3209" />
        </g>
        <g
           id="g3211"
           transform="translate(453.8652,310.3076)">
          <path
             inkscape:connector-curvature="0"
             d="m 0,0 0,0.084 c 0,2.748 -0.876,5.04 -2.501,6.666 -1.915,1.916 -4.79,2.956 -8.498,2.956 l -13.332,0 0,-29.161 6.413,0 0,9.332 0,5.665 0,8.374 6.377,0 c 3.125,0 5.041,-1.417 5.041,-4.167 l 0,-0.081 c 0,-2.459 -1.792,-4.126 -4.915,-4.126 0,0 -0.226,0.008 -0.537,-0.054 -0.033,-0.006 -0.063,-0.015 -0.096,-0.023 -0.107,-0.026 -0.222,-0.061 -0.343,-0.107 -0.11,-0.041 -0.215,-0.091 -0.316,-0.144 -0.008,-0.005 -0.015,-0.008 -0.022,-0.013 -0.887,-0.471 -1.5,-1.393 -1.5,-2.47 0,-0.583 0.18,-1.122 0.484,-1.571 0.502,-0.748 1.653,-2.455 1.653,-2.455 l 5.467,-8.16 7.5,0 -7.123,10.413 C -2.542,-7.666 0,-4.707 0,0"
             style="fill:#231f20;fill-opacity:1;fill-rule:nonzero;stroke:none"
             id="path3213" />
        </g>
      </g>
    </g>
  </g>
</svg>
